<?xml version="1.0" encoding="UTF-8" standalone="no"?>
<!DOCTYPE svg PUBLIC "-//W3C//DTD SVG 1.1//EN"
 "http://www.w3.org/Graphics/SVG/1.1/DTD/svg11.dtd">
<!-- Generated by graphviz version 2.43.0 (0)
 -->
<!-- Title: models_diagram Pages: 1 -->
<svg width="786pt" height="348pt"
 viewBox="0.00 0.00 786.00 348.00" xmlns="http://www.w3.org/2000/svg" xmlns:xlink="http://www.w3.org/1999/xlink">
<g id="graph0" class="graph" transform="scale(1 1) rotate(0) translate(4 344)">
<title>models_diagram</title>
<polygon fill="transparent" stroke="transparent" points="-4,4 -4,-344 782,-344 782,4 -4,4"/>
<!-- Account -->
<g id="node1" class="node">
<title>Account</title>
<path fill="none" stroke="black" d="M211,-188.5C211,-188.5 522,-188.5 522,-188.5 528,-188.5 534,-194.5 534,-200.5 534,-200.5 534,-327.5 534,-327.5 534,-333.5 528,-339.5 522,-339.5 522,-339.5 211,-339.5 211,-339.5 205,-339.5 199,-333.5 199,-327.5 199,-327.5 199,-200.5 199,-200.5 199,-194.5 205,-188.5 211,-188.5"/>
<text text-anchor="middle" x="366.5" y="-324.3" font-family="Times,serif" font-size="14.00">Account</text>
<polyline fill="none" stroke="black" points="199,-316.5 534,-316.5 "/>
<text text-anchor="start" x="207" y="-301.3" font-family="Times,serif" font-size="14.00">id :uuid</text>
<text text-anchor="start" x="207" y="-286.3" font-family="Times,serif" font-size="14.00">name :character varying</text>
<text text-anchor="start" x="207" y="-271.3" font-family="Times,serif" font-size="14.00">kind :character varying</text>
<text text-anchor="start" x="207" y="-256.3" font-family="Times,serif" font-size="14.00">opening_balance :numeric</text>
<text text-anchor="start" x="207" y="-241.3" font-family="Times,serif" font-size="14.00">created_at :timestamp(6) without time zone</text>
<text text-anchor="start" x="207" y="-226.3" font-family="Times,serif" font-size="14.00">updated_at :timestamp(6) without time zone</text>
<text text-anchor="start" x="207" y="-211.3" font-family="Times,serif" font-size="14.00">slug :character varying</text>
<text text-anchor="start" x="207" y="-196.3" font-family="Times,serif" font-size="14.00">user_id :uuid</text>
</g>
<!-- Transaction -->
<g id="node3" class="node">
<title>Transaction</title>
<path fill="none" stroke="black" d="M12,-0.5C12,-0.5 323,-0.5 323,-0.5 329,-0.5 335,-6.5 335,-12.5 335,-12.5 335,-139.5 335,-139.5 335,-145.5 329,-151.5 323,-151.5 323,-151.5 12,-151.5 12,-151.5 6,-151.5 0,-145.5 0,-139.5 0,-139.5 0,-12.5 0,-12.5 0,-6.5 6,-0.5 12,-0.5"/>
<text text-anchor="middle" x="167.5" y="-136.3" font-family="Times,serif" font-size="14.00">Transaction</text>
<polyline fill="none" stroke="black" points="0,-128.5 335,-128.5 "/>
<text text-anchor="start" x="8" y="-113.3" font-family="Times,serif" font-size="14.00">id :uuid</text>
<text text-anchor="start" x="8" y="-98.3" font-family="Times,serif" font-size="14.00">date :date</text>
<text text-anchor="start" x="8" y="-83.3" font-family="Times,serif" font-size="14.00">amount :double precision</text>
<text text-anchor="start" x="8" y="-68.3" font-family="Times,serif" font-size="14.00">kind :character varying</text>
<text text-anchor="start" x="8" y="-53.3" font-family="Times,serif" font-size="14.00">description :text</text>
<text text-anchor="start" x="8" y="-38.3" font-family="Times,serif" font-size="14.00">created_at :timestamp(6) without time zone</text>
<text text-anchor="start" x="8" y="-23.3" font-family="Times,serif" font-size="14.00">updated_at :timestamp(6) without time zone</text>
<text text-anchor="start" x="8" y="-8.3" font-family="Times,serif" font-size="14.00">account_id :uuid</text>
</g>
<!-- Account&#45;&gt;Transaction -->
<g id="edge1" class="edge">
<title>Account&#45;&gt;Transaction</title>
<path fill="none" stroke="#39749e" d="M279.36,-181.56C271.2,-173.93 262.93,-166.2 254.77,-158.57"/>
<polygon fill="#39749e" stroke="#39749e" points="279.4,-181.59 283.63,-191.71 283.05,-185 286.71,-188.42 286.71,-188.42 286.71,-188.42 283.05,-185 289.78,-185.13 279.4,-181.59 279.4,-181.59"/>
<polygon fill="#39749e" stroke="#39749e" points="254.62,-158.43 250.38,-148.31 250.97,-155.01 247.31,-151.6 247.31,-151.6 247.31,-151.6 250.97,-155.01 244.24,-154.89 254.62,-158.43 254.62,-158.43"/>
</g>
<!-- User -->
<g id="node4" class="node">
<title>User</title>
<path fill="none" stroke="black" d="M365,-0.5C365,-0.5 766,-0.5 766,-0.5 772,-0.5 778,-6.5 778,-12.5 778,-12.5 778,-139.5 778,-139.5 778,-145.5 772,-151.5 766,-151.5 766,-151.5 365,-151.5 365,-151.5 359,-151.5 353,-145.5 353,-139.5 353,-139.5 353,-12.5 353,-12.5 353,-6.5 359,-0.5 365,-0.5"/>
<text text-anchor="middle" x="565.5" y="-136.3" font-family="Times,serif" font-size="14.00">User</text>
<polyline fill="none" stroke="black" points="353,-128.5 778,-128.5 "/>
<text text-anchor="start" x="361" y="-113.3" font-family="Times,serif" font-size="14.00">id :uuid</text>
<text text-anchor="start" x="361" y="-98.3" font-family="Times,serif" font-size="14.00">email :character varying</text>
<text text-anchor="start" x="361" y="-83.3" font-family="Times,serif" font-size="14.00">encrypted_password :character varying</text>
<text text-anchor="start" x="361" y="-68.3" font-family="Times,serif" font-size="14.00">reset_password_token :character varying</text>
<text text-anchor="start" x="361" y="-53.3" font-family="Times,serif" font-size="14.00">reset_password_sent_at :timestamp(6) without time zone</text>
<text text-anchor="start" x="361" y="-38.3" font-family="Times,serif" font-size="14.00">remember_created_at :timestamp(6) without time zone</text>
<text text-anchor="start" x="361" y="-23.3" font-family="Times,serif" font-size="14.00">created_at :timestamp(6) without time zone</text>
<text text-anchor="start" x="361" y="-8.3" font-family="Times,serif" font-size="14.00">updated_at :timestamp(6) without time zone</text>
</g>
<!-- Account&#45;&gt;User -->
<g id="edge2" class="edge">
<title>Account&#45;&gt;User</title>
<path fill="none" stroke="#0830b5" d="M453.64,-181.56C461.8,-173.93 470.07,-166.2 478.23,-158.57"/>
<polygon fill="#0830b5" stroke="#0830b5" points="453.6,-181.59 443.22,-185.13 449.95,-185 446.29,-188.42 446.29,-188.42 446.29,-188.42 449.95,-185 449.37,-191.71 453.6,-181.59 453.6,-181.59"/>
<polygon fill="#0830b5" stroke="#0830b5" points="478.38,-158.43 488.76,-154.89 482.03,-155.01 485.69,-151.6 485.69,-151.6 485.69,-151.6 482.03,-155.01 482.62,-148.31 478.38,-158.43 478.38,-158.43"/>
</g>
<!-- ApplicationRecord -->
<g id="node2" class="node">
<title>ApplicationRecord</title>
<ellipse fill="none" stroke="black" cx="647.5" cy="-264" rx="95.58" ry="18"/>
<text text-anchor="middle" x="647.5" y="-260.3" font-family="Times,serif" font-size="14.00">ApplicationRecord</text>
</g>
</g>
</svg>
