<?xml version="1.0" encoding="UTF-8" standalone="no"?>
<!DOCTYPE svg PUBLIC "-//W3C//DTD SVG 1.1//EN"
 "http://www.w3.org/Graphics/SVG/1.1/DTD/svg11.dtd">
<!-- Generated by graphviz version 2.43.0 (0)
 -->
<!-- Title: models_diagram Pages: 1 -->
<svg width="552pt" height="333pt"
 viewBox="0.00 0.00 552.04 333.00" xmlns="http://www.w3.org/2000/svg" xmlns:xlink="http://www.w3.org/1999/xlink">
<g id="graph0" class="graph" transform="scale(1 1) rotate(0) translate(4 329)">
<title>models_diagram</title>
<polygon fill="transparent" stroke="transparent" points="-4,4 -4,-329 548.04,-329 548.04,4 -4,4"/>
<!-- Account -->
<g id="node1" class="node">
<title>Account</title>
<path fill="none" stroke="black" d="M12,-188.5C12,-188.5 323,-188.5 323,-188.5 329,-188.5 335,-194.5 335,-200.5 335,-200.5 335,-312.5 335,-312.5 335,-318.5 329,-324.5 323,-324.5 323,-324.5 12,-324.5 12,-324.5 6,-324.5 0,-318.5 0,-312.5 0,-312.5 0,-200.5 0,-200.5 0,-194.5 6,-188.5 12,-188.5"/>
<text text-anchor="middle" x="167.5" y="-309.3" font-family="Times,serif" font-size="14.00">Account</text>
<polyline fill="none" stroke="black" points="0,-301.5 335,-301.5 "/>
<text text-anchor="start" x="8" y="-286.3" font-family="Times,serif" font-size="14.00">id :uuid</text>
<text text-anchor="start" x="8" y="-271.3" font-family="Times,serif" font-size="14.00">name :character varying</text>
<text text-anchor="start" x="8" y="-256.3" font-family="Times,serif" font-size="14.00">kind :character varying</text>
<text text-anchor="start" x="8" y="-241.3" font-family="Times,serif" font-size="14.00">opening_balance :numeric</text>
<text text-anchor="start" x="8" y="-226.3" font-family="Times,serif" font-size="14.00">created_at :timestamp(6) without time zone</text>
<text text-anchor="start" x="8" y="-211.3" font-family="Times,serif" font-size="14.00">updated_at :timestamp(6) without time zone</text>
<text text-anchor="start" x="8" y="-196.3" font-family="Times,serif" font-size="14.00">slug :character varying</text>
</g>
<!-- Transaction -->
<g id="node3" class="node">
<title>Transaction</title>
<path fill="none" stroke="black" d="M12,-0.5C12,-0.5 323,-0.5 323,-0.5 329,-0.5 335,-6.5 335,-12.5 335,-12.5 335,-139.5 335,-139.5 335,-145.5 329,-151.5 323,-151.5 323,-151.5 12,-151.5 12,-151.5 6,-151.5 0,-145.5 0,-139.5 0,-139.5 0,-12.5 0,-12.5 0,-6.5 6,-0.5 12,-0.5"/>
<text text-anchor="middle" x="167.5" y="-136.3" font-family="Times,serif" font-size="14.00">Transaction</text>
<polyline fill="none" stroke="black" points="0,-128.5 335,-128.5 "/>
<text text-anchor="start" x="8" y="-113.3" font-family="Times,serif" font-size="14.00">id :uuid</text>
<text text-anchor="start" x="8" y="-98.3" font-family="Times,serif" font-size="14.00">date :date</text>
<text text-anchor="start" x="8" y="-83.3" font-family="Times,serif" font-size="14.00">amount :double precision</text>
<text text-anchor="start" x="8" y="-68.3" font-family="Times,serif" font-size="14.00">kind :character varying</text>
<text text-anchor="start" x="8" y="-53.3" font-family="Times,serif" font-size="14.00">description :text</text>
<text text-anchor="start" x="8" y="-38.3" font-family="Times,serif" font-size="14.00">created_at :timestamp(6) without time zone</text>
<text text-anchor="start" x="8" y="-23.3" font-family="Times,serif" font-size="14.00">updated_at :timestamp(6) without time zone</text>
<text text-anchor="start" x="8" y="-8.3" font-family="Times,serif" font-size="14.00">account_id :uuid</text>
</g>
<!-- Account&#45;&gt;Transaction -->
<g id="edge1" class="edge">
<title>Account&#45;&gt;Transaction</title>
<path fill="none" stroke="#75a45f" d="M167.5,-178.07C167.5,-172.73 167.5,-167.32 167.5,-161.94"/>
<polygon fill="#75a45f" stroke="#75a45f" points="167.5,-178.27 163,-188.27 167.5,-183.27 167.5,-188.27 167.5,-188.27 167.5,-188.27 167.5,-183.27 172,-188.27 167.5,-178.27 167.5,-178.27"/>
<polygon fill="#75a45f" stroke="#75a45f" points="167.5,-161.64 172,-151.64 167.5,-156.64 167.5,-151.64 167.5,-151.64 167.5,-151.64 167.5,-156.64 163,-151.64 167.5,-161.64 167.5,-161.64"/>
</g>
<!-- ApplicationRecord -->
<g id="node2" class="node">
<title>ApplicationRecord</title>
<ellipse fill="none" stroke="black" cx="448.5" cy="-256.5" rx="95.58" ry="18"/>
<text text-anchor="middle" x="448.5" y="-252.8" font-family="Times,serif" font-size="14.00">ApplicationRecord</text>
</g>
</g>
</svg>
